<?xml version="1.0" standalone="no"?>
<!DOCTYPE svg PUBLIC "-//W3C//DTD SVG 20010904//EN"
 "http://www.w3.org/TR/2001/REC-SVG-20010904/DTD/svg10.dtd">
<svg version="1.0" xmlns="http://www.w3.org/2000/svg"
 width="280.000000pt" height="250.000000pt" viewBox="0 0 280.000000 250.000000"
 preserveAspectRatio="xMidYMid meet">

<g transform="translate(0.000000,250.000000) scale(0.100000,-0.100000)"
fill="#000000" stroke="none">
<path d="M0 2195 c0 -168 3 -305 8 -306 4 0 23 -1 42 -2 l35 -2 5 255 5 255
1303 3 1302 2 0 -255 0 -255 45 0 45 0 0 305 0 305 -1395 0 -1395 0 0 -305z"/>
<path d="M652 2178 l-2 -48 -162 0 c-89 0 -158 -3 -155 -6 4 -4 76 -6 162 -5
134 2 155 0 155 -13 0 -14 -22 -16 -162 -16 -132 0 -159 -2 -145 -13 16 -11
17 -49 15 -517 l-3 -505 147 3 147 3 4 -38 4 -38 1 38 2 37 248 0 c222 0 261
3 372 24 226 45 327 102 386 218 23 46 24 55 24 273 0 220 -1 227 -25 274 -39
77 -117 137 -230 176 -55 19 -63 20 -150 38 -47 9 -54 12 -31 15 16 2 51 2 78
0 26 -1 48 0 48 5 0 4 -162 7 -360 7 -315 0 -360 2 -360 15 0 14 62 15 526 15
290 -1 529 1 532 4 3 4 -234 6 -526 6 l-531 0 -4 48 -3 47 -2 -47z m513 -253
c90 -17 171 -58 197 -100 16 -27 18 -54 18 -251 0 -214 -1 -222 -23 -255 -12
-19 -41 -44 -63 -56 -80 -44 -145 -54 -396 -60 l-238 -6 0 372 0 371 214 0
c146 0 238 -5 291 -15z"/>
<path d="M2090 2152 c0 -59 -1 -61 -27 -65 l-28 -4 28 -2 27 -1 2 -542 c0
-299 3 -528 5 -510 l4 32 144 0 144 0 4 -37 c2 -21 4 208 5 509 l2 547 33 4
32 4 -32 1 c-25 2 -33 7 -33 21 0 14 8 21 28 24 l27 4 -27 2 c-23 1 -27 6 -31
39 l-4 37 -1 -37 -2 -37 -137 -4 -138 -3 138 -2 c130 -2 137 -3 137 -22 0 -19
-7 -20 -144 -20 l-144 0 -1 56 c0 31 -3 59 -6 62 -3 3 -5 -22 -5 -56z"/>
<path d="M2048 2133 c6 -2 18 -2 25 0 6 3 1 5 -13 5 -14 0 -19 -2 -12 -5z"/>
<path d="M5 1047 c-3 -7 -4 -134 -3 -282 l3 -270 1390 0 1390 0 0 280 0 280
-42 3 -43 3 -2 -233 -3 -233 -1300 0 -1300 0 -3 233 -2 232 -40 0 c-24 0 -43
-5 -45 -13z"/>
<path d="M350 1020 c0 -5 5 -10 10 -10 6 0 10 5 10 10 0 6 -4 10 -10 10 -5 0
-10 -4 -10 -10z"/>
<path d="M418 1023 c12 -2 32 -2 45 0 12 2 2 4 -23 4 -25 0 -35 -2 -22 -4z"/>
<path d="M698 1023 c7 -3 16 -2 19 1 4 3 -2 6 -13 5 -11 0 -14 -3 -6 -6z"/>
<path d="M1128 1023 c6 -2 18 -2 25 0 6 3 1 5 -13 5 -14 0 -19 -2 -12 -5z"/>
<path d="M1213 1023 c9 -2 23 -2 30 0 6 3 -1 5 -18 5 -16 0 -22 -2 -12 -5z"/>
<path d="M1298 1023 c12 -2 32 -2 45 0 12 2 2 4 -23 4 -25 0 -35 -2 -22 -4z"/>
<path d="M1370 1020 c0 -5 5 -10 10 -10 6 0 10 5 10 10 0 6 -4 10 -10 10 -5 0
-10 -4 -10 -10z"/>
<path d="M1680 1020 c0 -5 5 -10 10 -10 6 0 10 5 10 10 0 6 -4 10 -10 10 -5 0
-10 -4 -10 -10z"/>
<path d="M370 825 c0 -61 2 -66 25 -75 16 -6 34 -6 50 0 23 9 25 14 25 75 0
37 -4 65 -10 65 -5 0 -10 -24 -10 -54 0 -35 -5 -58 -15 -66 -26 -22 -45 5 -45
66 0 30 -4 54 -10 54 -6 0 -10 -28 -10 -65z"/>
<path d="M1010 820 c0 -75 19 -100 21 -27 l1 42 14 -32 c17 -40 29 -41 48 -5
l15 27 1 -37 c0 -27 4 -38 15 -38 12 0 15 14 15 70 0 85 -18 94 -48 23 l-20
-48 -20 48 c-12 26 -26 47 -32 47 -6 0 -10 -28 -10 -70z"/>
<path d="M1688 879 c-21 -12 -24 -42 -5 -56 6 -6 24 -13 40 -17 29 -7 36 -30
11 -40 -8 -3 -24 -1 -34 4 -13 7 -21 7 -25 0 -3 -6 5 -14 19 -20 31 -11 70 1
79 24 8 20 -26 56 -52 56 -24 0 -32 11 -22 29 6 9 19 11 40 6 32 -7 44 8 15
19 -22 9 -46 7 -66 -5z"/>
<path d="M2333 873 c-3 -10 -15 -40 -25 -67 -19 -50 -16 -74 6 -43 17 22 44
22 68 0 29 -26 30 -11 2 60 -26 68 -40 81 -51 50z m30 -54 c3 -12 0 -22 -9
-26 -20 -8 -27 2 -19 26 8 27 21 27 28 0z"/>
<path d="M20 324 l0 -55 43 3 c41 3 42 4 45 43 4 45 -14 65 -60 65 -27 0 -28
-1 -28 -56z m65 -4 c0 -29 -4 -36 -22 -38 -21 -3 -23 1 -23 38 0 37 2 41 23
38 18 -2 22 -9 22 -38z"/>
<path d="M220 325 l0 -55 48 2 c43 1 44 2 10 5 -43 5 -55 33 -14 33 14 0 28 5
31 10 4 6 -7 10 -24 10 -21 0 -31 5 -31 15 0 10 11 15 35 15 19 0 35 5 35 10
0 6 -20 10 -45 10 l-45 0 0 -55z"/>
<path d="M417 373 c-11 -10 -8 -103 3 -103 6 0 10 9 10 20 0 16 7 20 30 20 38
0 58 31 34 54 -15 16 -65 22 -77 9z m67 -22 c8 -13 -21 -34 -39 -27 -25 9 -18
36 9 36 14 0 27 -4 30 -9z"/>
<path d="M615 328 c-24 -52 -25 -72 -3 -50 16 16 65 15 71 0 2 -7 7 -10 11 -6
7 6 -40 108 -50 108 -3 0 -16 -23 -29 -52z m45 -10 c0 -5 -7 -8 -15 -8 -17 0
-18 2 -9 25 5 13 8 14 15 3 5 -7 9 -16 9 -20z"/>
<path d="M800 325 c0 -30 5 -55 10 -55 6 0 10 9 10 20 0 27 24 25 43 -2 8 -13
18 -20 22 -16 4 4 2 14 -4 22 -9 11 -9 19 0 34 18 29 -4 52 -47 52 l-34 0 0
-55z m70 20 c0 -9 -9 -15 -25 -15 -16 0 -25 6 -25 15 0 9 9 15 25 15 16 0 25
-6 25 -15z"/>
<path d="M990 370 c0 -5 7 -10 15 -10 11 0 15 -12 15 -45 0 -25 5 -45 10 -45
6 0 10 20 10 45 0 38 3 45 20 45 11 0 20 5 20 10 0 6 -20 10 -45 10 -25 0 -45
-4 -45 -10z"/>
<path d="M1185 330 c-14 -28 -23 -55 -19 -58 4 -4 9 -1 11 6 6 14 59 16 68 2
3 -5 10 -10 15 -10 9 0 -25 87 -40 104 -5 5 -20 -15 -35 -44z m45 -12 c0 -5
-7 -8 -15 -8 -15 0 -20 21 -8 33 7 7 23 -11 23 -25z"/>
<path d="M1370 325 c0 -30 5 -55 10 -55 6 0 10 15 10 33 l1 32 16 -29 16 -30
23 30 24 29 0 -34 c0 -19 3 -32 6 -28 8 8 9 95 1 103 -3 4 -16 -10 -28 -31
l-22 -38 -21 37 c-12 20 -24 36 -28 36 -5 0 -8 -25 -8 -55z"/>
<path d="M1598 373 c-2 -5 -4 -28 -3 -53 l0 -45 45 -2 c40 -1 41 0 11 5 -45 9
-53 32 -12 32 37 0 42 17 6 22 -37 4 -35 22 3 26 17 2 32 7 32 13 0 11 -77 12
-82 2z"/>
<path d="M1790 325 c0 -30 5 -55 10 -55 6 0 10 16 10 37 l0 36 28 -36 c38 -51
52 -48 52 12 0 61 -18 77 -22 20 l-3 -41 -30 41 c-16 22 -33 41 -37 41 -5 0
-8 -25 -8 -55z"/>
<path d="M1980 370 c0 -5 9 -10 20 -10 17 0 20 -7 20 -45 0 -25 5 -45 10 -45
6 0 10 20 10 45 0 33 4 45 15 45 8 0 15 5 15 10 0 6 -20 10 -45 10 -25 0 -45
-4 -45 -10z"/>
<path d="M2176 364 c-33 -33 -12 -94 32 -94 35 0 52 17 52 51 0 32 -23 59 -50
59 -10 0 -26 -7 -34 -16z m59 -44 c0 -29 -4 -36 -22 -38 -17 -3 -24 3 -29 22
-9 37 2 58 28 54 19 -2 23 -9 23 -38z"/>
<path d="M2480 325 l0 -55 38 0 c45 0 62 14 62 50 0 35 -29 60 -68 60 l-32 0
0 -55z m78 7 c4 -28 -14 -52 -39 -52 -16 0 -19 8 -19 41 0 38 1 40 28 37 19
-2 28 -9 30 -26z"/>
<path d="M2680 325 l0 -55 48 2 c43 1 44 2 10 5 -47 5 -54 33 -8 33 17 0 30 5
30 10 0 6 -13 10 -30 10 -20 0 -30 5 -30 15 0 10 11 15 35 15 19 0 35 5 35 10
0 6 -20 10 -45 10 l-45 0 0 -55z"/>
<path d="M20 135 c0 -35 4 -54 10 -50 13 8 13 92 0 100 -6 4 -10 -15 -10 -50z"/>
<path d="M150 135 c0 -30 5 -55 10 -55 6 0 10 17 10 37 l0 38 31 -38 c17 -20
35 -37 40 -37 5 0 9 25 9 55 0 30 -4 55 -10 55 -5 0 -10 -16 -10 -35 0 -44 -9
-44 -39 0 -13 19 -27 35 -32 35 -5 0 -9 -25 -9 -55z"/>
<path d="M360 135 c0 -54 15 -77 22 -33 2 16 12 25 33 29 l30 7 -33 1 c-47 1
-41 34 8 42 33 6 32 6 -12 8 l-48 1 0 -55z"/>
<path d="M540 135 c0 -30 5 -55 10 -55 6 0 10 9 10 19 0 33 22 36 42 8 25 -34
46 -35 24 -2 -9 14 -12 25 -7 25 15 0 22 32 10 46 -6 8 -29 14 -50 14 l-39 0
0 -55z m68 22 c3 -12 -3 -17 -22 -17 -25 0 -35 18 -19 34 12 12 38 2 41 -17z"/>
<path d="M757 138 c-24 -54 -26 -71 -5 -50 15 15 61 15 76 0 9 -9 12 -9 12 0
0 17 -43 102 -51 102 -4 0 -19 -24 -32 -52z m46 2 c4 -15 0 -20 -14 -20 -21 0
-22 1 -13 24 8 22 21 20 27 -4z"/>
<path d="M950 135 l0 -55 43 1 42 2 -35 6 c-44 8 -47 33 -5 42 l30 6 -30 4
c-42 6 -39 32 5 40 l35 6 -42 2 -43 1 0 -55z"/>
<path d="M1141 172 c-11 -21 3 -42 29 -42 8 0 22 -5 30 -10 13 -9 13 -11 0
-20 -8 -5 -28 -7 -44 -4 -19 4 -26 3 -22 -5 10 -16 72 -13 86 4 17 20 -1 41
-41 49 -27 5 -29 8 -19 21 8 10 21 13 38 8 17 -4 23 -2 18 6 -12 18 -64 13
-75 -7z"/>
<path d="M1328 180 c18 -8 22 -17 22 -55 0 -25 5 -45 10 -45 6 0 10 20 10 45
0 38 4 47 23 55 17 7 10 9 -33 9 -43 0 -50 -2 -32 -9z"/>
<path d="M1500 135 c0 -30 5 -55 10 -55 6 0 10 9 10 19 0 33 22 36 42 8 24
-33 46 -36 25 -3 -14 21 -14 25 0 39 24 24 0 47 -48 47 l-39 0 0 -55z m69 32
c6 -8 8 -17 4 -20 -12 -12 -53 -7 -53 6 0 28 30 37 49 14z"/>
<path d="M1700 147 c0 -24 5 -48 12 -55 15 -15 61 -15 76 0 14 14 16 98 2 98
-5 0 -10 -17 -10 -39 0 -42 -18 -65 -44 -55 -11 4 -16 19 -16 50 0 24 -4 44
-10 44 -5 0 -10 -19 -10 -43z"/>
<path d="M1917 183 c-4 -3 -7 -25 -7 -49 0 -29 5 -44 16 -48 26 -10 51 -7 64
9 15 18 7 19 -21 4 -40 -21 -67 32 -33 65 11 12 20 13 34 6 27 -14 34 -12 20
5 -13 15 -61 21 -73 8z"/>
<path d="M2098 183 c19 -4 22 -11 22 -54 0 -27 5 -49 10 -49 6 0 10 20 10 45
0 38 4 47 23 55 17 7 9 9 -33 8 -30 0 -45 -3 -32 -5z"/>
<path d="M2270 147 c0 -24 5 -48 12 -55 15 -15 64 -16 73 -1 12 18 15 88 5 94
-6 4 -10 -10 -10 -33 0 -42 -20 -68 -45 -58 -10 4 -15 19 -15 51 0 25 -4 45
-10 45 -5 0 -10 -19 -10 -43z"/>
<path d="M2481 133 c1 -39 3 -50 8 -34 9 34 27 37 47 7 19 -30 40 -35 24 -6
-8 14 -7 25 2 39 17 28 -5 51 -48 51 l-34 0 1 -57z m58 38 c17 -11 5 -31 -19
-31 -21 0 -34 15 -25 30 8 12 25 13 44 1z"/>
<path d="M2686 138 c-24 -54 -25 -71 -4 -50 16 16 65 15 71 0 2 -7 8 -10 12
-5 10 8 -34 107 -47 107 -5 0 -19 -24 -32 -52z m39 -16 c-22 -5 -27 1 -19 23
7 17 8 17 21 -1 12 -17 12 -19 -2 -22z"/>
</g>
</svg>
